<mxfile host="app.diagrams.net" modified="2023-07-24T05:32:44.054Z" agent="Mozilla/5.0 (Windows NT 10.0; Win64; x64) AppleWebKit/537.36 (KHTML, like Gecko) Chrome/114.0.0.0 Safari/537.36" version="21.6.5" etag="ZCyUY6OIwSas5nrK6Ibz" type="github">
  <diagram name="第 1 页" id="0YPWHUfUz39u8Ngaqihy">
    <mxGraphModel>
      <root>
        <mxCell id="0" />
        <mxCell id="1" parent="0" />
      </root>
    </mxGraphModel>
  </diagram>
</mxfile>
